<?xml version="1.0" encoding="UTF-8"?>
<svg id="Layer_2" data-name="Layer 2" xmlns="http://www.w3.org/2000/svg" viewBox="0 0 44 44">
  <path d="M22,31c1.97,0,3.63-.68,4.98-2.03s2.03-3.01,2.03-4.98-.68-3.63-2.03-4.98-3.01-2.03-4.98-2.03-3.63.68-4.98,2.03-2.03,3.01-2.03,4.98.68,3.63,2.03,4.98,3.01,2.03,4.98,2.03ZM22,29.6c-1.6,0-2.93-.53-4-1.6s-1.6-2.4-1.6-4,.53-2.93,1.6-4c1.07-1.07,2.4-1.6,4-1.6s2.93.53,4,1.6c1.07,1.07,1.6,2.4,1.6,4s-.53,2.93-1.6,4-2.4,1.6-4,1.6ZM7.6,37.4c-.87,0-1.58-.28-2.15-.85s-.85-1.28-.85-2.15V13.6c0-.87.28-1.58.85-2.15s1.28-.85,2.15-.85h5.8l3.7-4h9.8l3.7,4h5.8c.87,0,1.58.28,2.15.85s.85,1.28.85,2.15v20.8c0,.87-.28,1.58-.85,2.15s-1.28.85-2.15.85H7.6ZM7.6,36h28.8c.47,0,.85-.15,1.15-.45s.45-.68.45-1.15V13.6c0-.47-.15-.85-.45-1.15s-.68-.45-1.15-.45h-6.4l-3.7-4h-8.6l-3.7,4h-6.4c-.47,0-.85.15-1.15.45s-.45.68-.45,1.15v20.8c0,.47.15.85.45,1.15s.68.45,1.15.45Z"/>
</svg>